PathFileType	4	(X/Y/Z)	s11c0201.trc
DataRate	CameraRate	NumFrames	NumMarkers	Units	OrigDataRate	OrigDataStartFrame	OrigNumFrames
200	200	4	48	mm	200	0	2000
Frame#	Time	racr			lacr			c7			jug			rlel			rdr			llel			ldr			s2			lic			ric			lasi			rasi			rpsi			lpsi			rgt			lgt			rth1			rth2			rth3			rth4			rlfc			rmfc			rsh1			rsh2			rsh3			rsh4			rlmal			rcal			rtoe			rmt5			lth1			lth2			lth4			lth3			llfc			lmfc			llmal			lcal			lmt5			lsh1			lsh2			lsh3			lsh4			ltoe			SBIKE			LBIKE			RBIKE			
		X1	Y1	Z1	X2	Y2	Z2	X3	Y3	Z3	X4	Y4	Z4	X5	Y5	Z5	X6	Y6	Z6	X7	Y7	Z7	X8	Y8	Z8	X9	Y9	Z9	X10	Y10	Z10	X11	Y11	Z11	X12	Y12	Z12	X13	Y13	Z13	X14	Y14	Z14	X15	Y15	Z15	X16	Y16	Z16	X17	Y17	Z17	X18	Y18	Z18	X19	Y19	Z19	X20	Y20	Z20	X21	Y21	Z21	X22	Y22	Z22	X23	Y23	Z23	X24	Y24	Z24	X25	Y25	Z25	X26	Y26	Z26	X27	Y27	Z27	X28	Y28	Z28	X29	Y29	Z29	X30	Y30	Z30	X31	Y31	Z31	X32	Y32	Z32	X33	Y33	Z33	X34	Y34	Z34	X35	Y35	Z35	X36	Y36	Z36	X37	Y37	Z37	X38	Y38	Z38	X39	Y39	Z39	X40	Y40	Z40	X41	Y41	Z41	X42	Y42	Z42	X43	Y43	Z43	X44	Y44	Z44	X45	Y45	Z45	X46	Y46	Z46	X47	Y47	Z47	X48	Y48	Z48	
0	0.0000	461.798243	1459.003969	-104.461472	452.930990	1480.213422	-421.990578	364.980081	1536.743532	-261.126824	426.705328	1369.190696	-269.359582	578.140453	1204.393691	-43.814674	765.933379	972.487669	-63.815148	537.566091	1185.372560	-505.047576	767.613814	961.659814	-485.118003	-140.403045	1184.263878	-260.336835	46.623741	1204.808093	-401.665185	97.252964	1204.693130	-59.162223	115.666201	1146.677102	-417.598864	128.880611	1135.724582	-89.396038	-82.664214	1275.283025	-196.983381	-88.951106	1271.300871	-292.305938	23.358804	1046.523335	-44.323521	1.115279	1106.591051	-475.377459	95.248671	889.334447	-96.977908	143.263244	851.897347	-60.221266	156.450358	767.924330	-81.509487	176.092308	868.230316	-68.362474	202.067811	676.384964	-110.344732	194.733720	656.097809	-231.954316	183.600216	521.755967	-86.913249	202.790898	436.423533	-101.232520	179.224570	352.579421	-96.565228	224.400565	437.502333	-134.934152	168.146754	210.896177	-106.362626	112.530913	170.638384	-151.237667	394.797487	224.397956	-150.570897	336.978939	178.286671	-80.190714	129.808536	1041.021508	-501.723387	214.357147	1028.980452	-507.058135	230.960455	1060.999484	-496.197776	284.143824	972.800316	-517.235190	407.354779	899.974827	-509.649260	432.922168	896.389611	-380.875030	98.183903	617.941889	-422.661201	27.040043	602.271404	-378.463658	191.153000	479.903025	-453.552235	319.711141	810.120887	-510.760133	279.949485	739.722777	-482.555711	205.621105	694.412236	-464.599620	305.493099	725.910192	-461.108893	290.840766	464.399796	-389.645015	-215.921495	956.886558	-257.657476	-18.064945	81.007834	-460.709916	-17.963380	80.826696	-62.069878	
1	0.0050	461.785928	1458.969323	-104.454901	452.919793	1480.199373	-421.957259	364.975119	1536.750167	-261.077371	426.666225	1369.246537	-269.343081	578.123904	1204.369151	-43.815938	765.936162	972.480011	-63.768885	537.579771	1185.400572	-505.030188	767.622286	961.666326	-485.141928	-140.403335	1184.263627	-260.375277	46.851991	1204.787259	-401.835631	97.229060	1204.730809	-59.137883	115.665013	1146.648786	-417.597590	128.881926	1135.718559	-89.408435	-82.666783	1275.288870	-197.024146	-88.945338	1271.302605	-292.334988	23.337239	1046.536822	-44.342078	1.132296	1106.574554	-475.382756	95.230267	889.337593	-96.968057	143.228885	851.923384	-60.210658	156.438204	767.964192	-81.507716	176.081389	868.242262	-68.367270	202.068026	676.379611	-110.339546	194.785046	656.111458	-231.961007	183.602718	521.830979	-86.894881	202.801983	436.435666	-101.209175	179.255088	352.568960	-96.544925	224.402641	437.534472	-134.924030	168.142180	210.906321	-106.363561	112.521260	170.638442	-151.197405	394.803728	224.404460	-150.574356	336.987920	178.312005	-80.189318	129.825084	1041.006864	-501.722043	214.383525	1028.970194	-507.022853	230.988901	1060.976171	-496.160460	284.177467	972.801957	-517.182840	407.401226	899.979959	-509.556466	432.942250	896.372595	-380.798441	98.197359	617.944890	-422.658229	27.045264	602.260486	-378.443252	191.146142	479.896543	-453.565062	319.763112	810.156612	-510.699804	279.970568	739.742672	-482.538024	205.647220	694.414404	-464.553861	305.522483	725.890599	-461.036288	290.838320	464.376633	-389.644988	-215.922083	956.878928	-257.639313	-18.080863	81.098992	-460.654639	-17.900121	80.837198	-62.137106	
2	0.0100	461.753527	1458.969201	-104.454764	452.920151	1480.205593	-421.958944	364.946807	1536.758947	-261.080268	426.670272	1369.252352	-269.320025	578.119220	1204.373977	-43.796417	765.952035	972.483326	-63.763280	537.603092	1185.413354	-505.040825	767.633868	961.684717	-485.154323	-140.419513	1184.254980	-260.405790	46.795726	1204.742224	-401.832920	97.210925	1204.728864	-59.171929	115.702958	1146.665980	-417.639548	128.869342	1135.721071	-89.387210	-82.674803	1275.303079	-197.045867	-88.944388	1271.300417	-292.368619	23.299353	1046.548738	-44.356348	1.138223	1106.569894	-475.389066	95.245447	889.358136	-96.994133	143.230037	851.938715	-60.207244	156.437306	767.981450	-81.493800	176.074101	868.258184	-68.333329	202.067169	676.406791	-110.315517	194.836738	656.163620	-231.840397	183.624947	521.849087	-86.882635	202.803443	436.450198	-101.198380	179.253744	352.594980	-96.548331	224.406212	437.546675	-134.906909	168.157283	210.919616	-106.357775	112.516403	170.683688	-151.200851	394.805754	224.407578	-150.586577	337.007650	178.307984	-80.187134	129.857608	1040.999695	-501.675970	214.417985	1028.959487	-506.975780	231.018024	1060.964355	-496.116490	284.218877	972.782243	-517.109698	407.446481	899.984430	-509.460779	432.960274	896.365067	-380.695042	98.206272	617.936013	-422.629768	27.051126	602.277662	-378.454092	191.142995	479.890281	-453.566895	319.799022	810.158350	-510.636309	279.984556	739.749818	-482.518289	205.671046	694.432170	-464.534082	305.542676	725.892585	-460.990068	290.830333	464.367179	-389.643127	-215.926410	956.885983	-257.646793	-18.080131	81.107173	-460.654117	-17.888110	80.847956	-62.152766	
3	0.0150	461.736720	1458.944479	-104.437273	452.927445	1480.199406	-421.947346	364.929108	1536.774656	-261.055025	426.645224	1369.291563	-269.312163	578.115987	1204.370018	-43.775777	765.970971	972.486236	-63.732555	537.627626	1185.419612	-505.031148	767.378634	961.373372	-484.426743	-140.258082	1184.013418	-260.838537	46.876889	1204.788848	-401.871342	97.177187	1204.747363	-59.151899	115.683096	1146.644225	-417.574474	128.847017	1135.717009	-89.397384	-81.879270	1274.932208	-196.724258	-88.929704	1271.301599	-292.416792	23.265850	1046.568023	-44.356749	1.166241	1106.554253	-475.394061	94.934196	889.345331	-96.808210	143.216933	851.949023	-60.209123	156.445806	768.002083	-81.492910	175.864121	868.299483	-68.394426	202.078730	676.415942	-110.316625	194.903065	656.199478	-231.831339	184.340862	521.787330	-86.842972	203.244419	436.704768	-101.018309	179.269686	352.593880	-96.530406	224.017531	437.617581	-134.948402	168.002604	211.089072	-106.278229	112.551739	170.705097	-151.214384	394.832491	224.414751	-150.572413	337.013947	178.318810	-80.184859	129.891722	1040.981414	-501.666855	214.376509	1029.330324	-507.781722	231.052056	1060.961106	-496.066156	284.151723	972.779350	-517.135050	407.486601	899.961169	-509.353361	432.952753	896.378709	-380.576568	98.215604	617.959340	-422.626356	27.055821	602.274341	-378.443219	191.147604	479.890830	-453.566967	319.830837	810.171038	-510.565563	279.949774	739.246720	-481.839485	205.693412	694.432943	-464.503862	305.468425	726.116358	-460.948289	290.826547	464.362670	-389.640877	-215.913129	956.873683	-257.638081	-18.099884	81.098198	-460.641198	-17.963219	80.844201	-62.077984	
